<svg xmlns="http://www.w3.org/2000/svg" viewBox="0 0 1366 768"><defs><style>.\33 b073fd7-b0a5-4aa2-9cb5-c75a71551f49{fill:#2d485f;}</style></defs><title>1</title><g id="2a270340-dfa9-4695-ad4d-568889930811" data-name="Layer 4"><polygon class="3b073fd7-b0a5-4aa2-9cb5-c75a71551f49" points="248 758 284 709 322 673 330 634 376 592 404 581 458 563 475 569 514 617 529 595 573 564 606 556 623 563 640 549 666 542 674 537 707 549 731 525 745 532 778 495 796 489 810 485 821 494 856 469 879 480 942 592 929 501 960 485 975 457 1009 449 1052 420 1088 420 1114 417 1150 424 1188 459 1218 412 1242 395 1292 444 1317 407 1366 384 1365 767 250 772 248 758"/></g></svg>