<svg xmlns="http://www.w3.org/2000/svg" viewBox="0 0 1366 768"><defs><style>.\34 26d0183-b864-4966-84ae-fb8802b56368{fill:#7695a1;}</style></defs><title>6</title><g id="80b02a8a-402c-4853-ac9e-0ceaf86e17bf" data-name="Layer 4"><polygon class="426d0183-b864-4966-84ae-fb8802b56368" points="294 453 321 370 362 352 422 334 461 358 505 325 527 321 539 311 553 325 568 318 620 328 664 325 710 340 762 311 787 316 800 300 809 320 853 319 879 320 890 336 908 322 926 329 950 328 1003 337 1077 351 1125 378 1171 365 1208 370 1285 360 1299 374 1309 352 1340 361 1366 365 1365 767 279.39 767 294 453"/></g></svg>