<svg xmlns="http://www.w3.org/2000/svg" viewBox="0 0 1366 768"><defs><style>.ac3094c7-d37e-41fa-b1d9-f39a76a0e826{fill:#59748a;}</style></defs><title>7</title><g id="26f3c31c-a4b0-46ca-8db0-e281f7c304ed" data-name="Layer 4"><polygon class="ac3094c7-d37e-41fa-b1d9-f39a76a0e826" points="-9 384 44 327 77 318 92 341 123 321 140 329 166 318 194 343 207 346 214 357 237 347 281 347 289 367 316 341 321 358 339 336 346 366 386 343 401 364 440 336 461 348 473 355 512 344 523 350 555 340 567 379 585 367 600 382 612 379 678 458 683 768 -1 768 -9 384"/></g></svg>